<svg width="836" height="1024" viewBox="0 0 836 1024" fill="none" xmlns="http://www.w3.org/2000/svg">
<path d="M116 1024C-284 512 516 512 116 0H836V1024H116Z" fill="#264653"/>
<path d="M296 1024C-104 512 696 512 296 0H836V1024H296Z" fill="#2A9D8F"/>
<path d="M476 1024C76.0002 512 876 512 476 0H836V1024H476Z" fill="#E9C46A"/>
<path d="M656 1024C256 512 1056 512 656 0H836V1024H656Z" fill="#F4A261"/>
<path d="M836 0C1036 256 936 384 836 512L836 1024C636 768 736 640 836 512L836 0Z" fill="#E76F51"/>
</svg>
